<?xml version="1.0" encoding="UTF-8" standalone="no"?>
<!DOCTYPE svg PUBLIC "-//W3C//DTD SVG 1.1//EN" "http://www.w3.org/Graphics/SVG/1.1/DTD/svg11.dtd">
<svg xmlns="http://www.w3.org/2000/svg" version="1.1" viewBox="0 0 1024 800">
<path fill="rgb(79,155,195)" fill-opacity="1.000" d="M 508.50 138.54 Q 506.82 138.87 505.79 140.25 Q 505.41 139.91 504.56 140.06 Q 497.05 141.43 485.74 142.43 Q 482.69 142.70 479.75 143.54 Q 473.56 143.29 467.69 145.19 Q 461.06 146.38 454.71 148.65 Q 446.18 151.70 437.85 155.29 Q 428.99 159.11 427.03 160.07 Q 421.99 162.55 416.81 166.06 Q 406.75 172.88 398.49 180.07 Q 394.55 183.51 389.25 189.17 Q 381.68 197.26 380.44 198.69 Q 369.06 211.72 361.06 227.06 Q 357.52 231.38 355.19 236.44 Q 352.73 243.04 349.83 249.46 Q 345.50 259.01 344.22 262.35 Q 334.39 288.14 331.50 311.50 Q 328.32 337.24 330.37 370.50 Q 330.54 373.19 331.44 374.26 Q 332.89 375.97 335.74 375.44 Q 339.20 374.79 340.00 372.00 Q 340.75 369.35 340.94 363.81 Q 341.21 355.75 341.21 355.71 Q 343.58 314.63 354.53 274.94 Q 357.87 262.82 363.03 251.37 Q 365.64 245.58 367.53 239.51 Q 369.32 233.75 372.94 228.94 Q 387.67 199.75 411.41 177.68 Q 418.28 171.30 425.43 166.27 Q 433.77 160.40 441.06 157.06 Q 454.02 151.13 463.56 147.81 Q 470.41 145.43 479.75 143.96 L 497.68 142.82 Q 498.34 142.77 497.91 143.23 L 496.75 144.46 Q 492.97 147.73 488.94 150.69 Q 487.69 152.21 486.77 153.93 Q 485.66 156.00 484.60 157.10 Q 482.70 159.07 480.69 160.94 Q 470.83 174.58 466.31 188.06 Q 460.04 206.77 458.75 212.25 Q 449.15 253.07 447.56 294.99 Q 446.90 312.57 449.08 330.02 Q 450.34 340.12 455.19 349.06 Q 455.39 349.88 456.21 350.00 Q 456.61 351.85 457.15 353.66 Q 457.17 353.75 457.21 354.36 Q 457.25 354.90 458.00 354.79 L 454.62 358.17 A 0.88 0.79 29.6 0 1 453.77 358.35 Q 429.42 350.99 403.99 353.15 Q 390.76 354.28 378.42 359.14 Q 367.16 363.57 356.81 369.81 Q 353.43 371.85 337.12 386.88 Q 334.84 388.97 330.75 388.25 Q 309.61 384.54 290.55 395.59 Q 290.45 395.65 285.17 398.46 Q 282.08 400.10 279.52 402.52 Q 274.16 407.56 269.73 413.36 Q 266.06 418.17 261.44 425.33 Q 255.48 434.56 252.31 443.06 Q 251.54 445.12 250.50 445.54 L 248.50 444.04 Q 245.47 441.43 244.32 437.55 A 0.80 0.78 86.3 0 0 243.69 436.98 Q 233.28 435.25 222.23 435.51 A 0.66 0.66 86.8 0 1 221.55 434.90 Q 219.91 414.89 219.76 395.28 Q 219.71 388.72 220.32 381.26 Q 220.89 374.25 221.48 367.25 Q 223.79 340.08 232.56 314.41 Q 234.47 308.83 238.41 299.35 Q 244.35 285.09 244.69 284.44 Q 255.49 263.43 269.49 244.49 Q 275.39 236.51 282.17 229.06 Q 289.40 221.12 297.19 213.69 Q 301.85 208.52 307.53 204.52 Q 312.03 201.34 315.81 197.31 Q 320.29 193.84 325.44 191.44 Q 330.78 186.77 336.81 183.06 Q 347.04 177.37 357.06 171.31 Q 358.62 170.37 368.94 166.69 Q 376.98 162.58 385.44 159.44 Q 388.14 158.43 399.74 155.03 Q 400.66 154.76 414.06 150.61 Q 434.09 144.40 454.06 142.06 Q 479.79 139.06 508.50 138.54 Z"/>
<path fill="rgb(41,108,174)" fill-opacity="1.000" d="M 508.50 138.54 Q 519.62 138.47 530.75 138.48 Q 556.78 138.51 582.54 142.05 Q 587.76 142.77 596.25 144.48 Q 603.08 145.85 609.94 147.06 Q 622.39 150.42 634.56 154.69 Q 654.94 160.59 658.00 162.25 Q 668.77 168.10 680.19 172.56 Q 687.75 176.89 695.31 181.19 Q 756.04 217.17 789.74 279.23 Q 795.43 289.72 799.56 300.94 Q 805.29 313.04 808.25 324.25 Q 815.88 353.17 817.85 384.76 Q 818.95 402.28 817.49 419.77 Q 817.00 425.63 816.71 432.55 A 0.95 0.93 87.4 0 1 815.91 433.44 Q 800.33 435.76 786.25 441.79 Q 785.59 441.34 784.79 441.50 Q 779.35 428.13 777.06 425.19 Q 771.76 418.37 767.25 411.00 Q 763.05 407.59 759.31 403.69 Q 749.89 396.12 738.68 391.58 Q 729.34 387.79 719.25 387.51 Q 710.71 387.27 702.40 388.48 A 2.41 2.40 64.9 0 1 700.27 387.70 Q 695.21 382.03 689.85 377.11 Q 684.54 372.24 677.95 368.34 Q 670.59 363.98 663.94 361.06 Q 646.88 353.58 627.99 352.89 Q 617.35 352.51 608.02 353.54 Q 597.40 354.71 587.02 358.42 Q 585.24 359.06 583.73 357.94 Q 559.19 339.86 528.41 335.98 Q 513.80 334.14 497.44 337.69 Q 475.18 342.51 458.00 354.79 Q 457.25 354.90 457.21 354.36 Q 457.17 353.75 457.15 353.66 Q 456.61 351.85 456.21 350.00 Q 457.12 348.32 457.25 347.25 Q 459.55 328.20 459.77 309.00 Q 459.90 297.23 460.99 285.50 Q 463.08 263.11 465.50 240.75 Q 467.61 221.22 475.17 190.79 Q 478.51 177.37 483.06 166.81 Q 486.28 159.34 492.19 151.94 Q 494.29 148.02 497.29 144.75 Q 500.77 142.13 505.00 141.00 Q 505.45 140.88 505.79 140.25 Q 506.82 138.87 508.50 138.54 Z M 542.51 145.21 Q 539.22 142.52 536.81 140.69 Q 535.93 140.01 535.17 140.59 A 0.48 0.42 47.3 0 0 535.19 141.28 Q 540.93 146.54 545.19 153.06 Q 547.87 158.46 550.72 163.77 Q 556.52 174.59 559.67 186.46 Q 564.76 205.65 567.75 219.00 Q 569.40 226.37 570.61 236.49 Q 573.39 259.84 575.25 283.28 Q 576.29 296.41 576.89 303.21 Q 578.86 325.57 579.25 334.00 Q 579.67 342.89 582.77 351.09 Q 583.17 352.13 583.56 351.08 Q 585.76 345.04 586.94 338.74 Q 589.50 325.20 590.22 311.49 Q 590.68 302.64 589.83 291.52 Q 587.49 261.05 581.61 231.03 Q 577.81 211.64 571.25 193.00 Q 569.60 186.35 567.31 181.94 Q 556.85 161.77 556.19 161.06 Q 549.88 154.32 543.65 146.38 Q 543.15 145.73 542.51 145.21 Z M 554.96 143.00 Q 570.09 145.88 580.06 150.19 Q 588.49 153.83 596.81 157.69 Q 601.24 159.65 607.06 163.69 Q 636.99 184.47 655.75 214.45 Q 658.50 218.85 663.34 227.84 Q 670.09 240.37 670.56 241.44 Q 673.42 247.91 674.94 254.81 Q 678.52 261.88 680.06 266.94 Q 694.38 313.82 697.82 362.75 Q 698.34 370.22 701.94 376.81 Q 702.84 378.46 703.15 382.43 Q 703.19 382.94 703.30 382.45 Q 703.73 380.61 704.00 378.75 Q 706.61 370.50 707.97 362.01 Q 709.16 354.51 709.00 344.92 Q 708.30 301.06 692.56 259.94 Q 687.73 251.72 685.25 242.50 Q 684.61 240.12 682.30 236.70 Q 679.08 231.93 676.29 226.89 Q 665.78 207.90 650.94 192.06 Q 636.19 176.32 613.44 161.81 Q 611.17 160.37 605.78 158.49 Q 601.42 156.98 598.02 155.46 Q 584.74 149.51 573.00 146.00 Q 567.14 144.25 557.75 142.71 Q 550.12 141.64 542.50 140.50 Q 540.17 140.58 542.25 141.50 Q 543.25 141.94 554.96 143.00 Z"/>
<path fill="rgb(158,201,224)" fill-opacity="1.000" d="M 504.56 140.06 Q 505.41 139.91 505.79 140.25 Q 505.45 140.88 505.00 141.00 Q 500.77 142.13 497.29 144.75 Q 497.12 144.41 496.75 144.46 L 497.91 143.23 Q 498.34 142.77 497.68 142.82 L 479.75 143.96 L 479.75 143.54 Q 482.69 142.70 485.74 142.43 Q 497.05 141.43 504.56 140.06 Z"/>
<path fill="rgb(254,251,247)" fill-opacity="1.000" d="M 536.81 140.69 Q 539.22 142.52 542.51 145.21 Q 543.15 145.73 543.65 146.38 Q 549.88 154.32 556.19 161.06 Q 556.85 161.77 567.31 181.94 Q 569.60 186.35 571.25 193.00 Q 577.81 211.64 581.61 231.03 Q 587.49 261.05 589.83 291.52 Q 590.68 302.64 590.22 311.49 Q 589.50 325.20 586.94 338.74 Q 585.76 345.04 583.56 351.08 Q 583.17 352.13 582.77 351.09 Q 579.67 342.89 579.25 334.00 Q 578.86 325.57 576.89 303.21 Q 576.29 296.41 575.25 283.28 Q 573.39 259.84 570.61 236.49 Q 569.40 226.37 567.75 219.00 Q 564.76 205.65 559.67 186.46 Q 556.52 174.59 550.72 163.77 Q 547.87 158.46 545.19 153.06 Q 540.93 146.54 535.19 141.28 A 0.48 0.42 47.3 0 1 535.17 140.59 Q 535.93 140.01 536.81 140.69 Z"/>
<path fill="rgb(158,201,224)" fill-opacity="1.000" d="M 542.50 140.50 Q 550.12 141.64 557.75 142.71 L 554.96 143.00 Q 543.25 141.94 542.25 141.50 Q 540.17 140.58 542.50 140.50 Z"/>
<path fill="rgb(254,250,244)" fill-opacity="1.000" d="M 557.75 142.71 Q 567.14 144.25 573.00 146.00 Q 584.74 149.51 598.02 155.46 Q 601.42 156.98 605.78 158.49 Q 611.17 160.37 613.44 161.81 Q 636.19 176.32 650.94 192.06 Q 665.78 207.90 676.29 226.89 Q 679.08 231.93 682.30 236.70 Q 684.61 240.12 685.25 242.50 Q 687.73 251.72 692.56 259.94 Q 708.30 301.06 709.00 344.92 Q 709.16 354.51 707.97 362.01 Q 706.61 370.50 704.00 378.75 Q 703.73 380.61 703.30 382.45 Q 703.19 382.94 703.15 382.43 Q 702.84 378.46 701.94 376.81 Q 698.34 370.22 697.82 362.75 Q 694.38 313.82 680.06 266.94 Q 678.52 261.88 674.94 254.81 Q 673.42 247.91 670.56 241.44 Q 670.09 240.37 663.34 227.84 Q 658.50 218.85 655.75 214.45 Q 636.99 184.47 607.06 163.69 Q 601.24 159.65 596.81 157.69 Q 588.49 153.83 580.06 150.19 Q 570.09 145.88 554.96 143.00 L 557.75 142.71 Z"/>
<path fill="rgb(254,251,247)" fill-opacity="1.000" d="M 479.75 143.54 L 479.75 143.96 Q 470.41 145.43 463.56 147.81 Q 454.02 151.13 441.06 157.06 Q 433.77 160.40 425.43 166.27 Q 418.28 171.30 411.41 177.68 Q 387.67 199.75 372.94 228.94 Q 369.32 233.75 367.53 239.51 Q 365.64 245.58 363.03 251.37 Q 357.87 262.82 354.53 274.94 Q 343.58 314.63 341.21 355.71 Q 341.21 355.75 340.94 363.81 Q 340.75 369.35 340.00 372.00 Q 339.20 374.79 335.74 375.44 Q 332.89 375.97 331.44 374.26 Q 330.54 373.19 330.37 370.50 Q 328.32 337.24 331.50 311.50 Q 334.39 288.14 344.22 262.35 Q 345.50 259.01 349.83 249.46 Q 352.73 243.04 355.19 236.44 Q 357.52 231.38 361.06 227.06 Q 369.06 211.72 380.44 198.69 Q 381.68 197.26 389.25 189.17 Q 394.55 183.51 398.49 180.07 Q 406.75 172.88 416.81 166.06 Q 421.99 162.55 427.03 160.07 Q 428.99 159.11 437.85 155.29 Q 446.18 151.70 454.71 148.65 Q 461.06 146.38 467.69 145.19 Q 473.56 143.29 479.75 143.54 Z"/>
<path fill="rgb(254,250,244)" fill-opacity="1.000" d="M 496.75 144.46 Q 497.12 144.41 497.29 144.75 Q 494.29 148.02 492.19 151.94 Q 486.28 159.34 483.06 166.81 Q 478.51 177.37 475.17 190.79 Q 467.61 221.22 465.50 240.75 Q 463.08 263.11 460.99 285.50 Q 459.90 297.23 459.77 309.00 Q 459.55 328.20 457.25 347.25 Q 457.12 348.32 456.21 350.00 Q 455.39 349.88 455.19 349.06 Q 450.34 340.12 449.08 330.02 Q 446.90 312.57 447.56 294.99 Q 449.15 253.07 458.75 212.25 Q 460.04 206.77 466.31 188.06 Q 470.83 174.58 480.69 160.94 Q 482.70 159.07 484.60 157.10 Q 485.66 156.00 486.77 153.93 Q 487.69 152.21 488.94 150.69 Q 492.97 147.73 496.75 144.46 Z"/>
<path fill="rgb(220,134,77)" fill-opacity="1.000" d="M 251.29 447.25 Q 266.23 460.51 270.31 463.69 Q 292.84 481.23 316.44 497.31 Q 323.53 502.15 359.54 527.25 Q 359.33 528.17 360.19 528.31 Q 363.37 531.37 367.46 533.00 Q 391.32 549.33 414.06 567.19 Q 419.68 570.61 423.44 574.56 Q 426.40 577.67 428.87 579.41 Q 432.94 582.27 436.38 585.87 Q 440.33 589.99 444.94 593.10 Q 446.85 594.39 448.30 596.17 Q 452.34 601.12 457.69 604.56 Q 463.12 610.87 469.44 616.31 Q 477.58 624.93 486.27 632.99 Q 502.57 648.12 516.92 665.11 A 0.43 0.43 0.0 0 0 517.58 665.11 Q 524.76 656.67 532.44 648.69 Q 549.40 631.78 566.31 614.81 Q 571.18 610.78 575.65 606.32 Q 581.52 600.44 581.57 600.40 Q 605.75 577.19 634.06 556.56 Q 675.06 526.70 709.19 503.19 Q 713.62 499.70 718.29 496.53 Q 737.32 483.61 756.19 470.44 Q 763.12 466.02 769.11 460.37 Q 771.45 458.16 774.69 457.68 Q 776.36 457.43 777.26 455.98 A 4.42 4.42 -83.9 0 1 779.51 454.16 Q 780.91 453.66 781.54 452.25 L 781.96 452.25 Q 782.10 454.12 780.29 454.69 A 1.96 1.56 6.4 0 0 779.48 455.20 Q 776.40 458.69 771.81 459.71 A 1.86 1.64 13.8 0 0 770.95 460.16 Q 759.08 471.49 746.37 481.85 Q 738.74 488.07 729.50 496.50 Q 716.60 508.26 698.70 523.70 Q 689.85 531.33 681.44 539.44 Q 675.38 543.97 669.64 548.88 Q 635.11 578.44 600.44 607.84 Q 594.85 612.59 585.30 620.90 Q 557.05 645.48 527.50 668.50 Q 523.09 672.18 518.23 675.26 Q 516.78 676.18 515.31 675.29 Q 511.64 673.06 508.69 670.06 Q 506.33 667.67 498.31 663.19 Q 494.67 659.20 490.69 655.56 Q 476.37 644.29 462.31 632.69 Q 430.25 605.10 397.99 577.75 Q 361.80 547.08 326.28 515.66 Q 326.23 515.62 321.92 512.17 Q 318.72 509.59 316.31 506.19 Q 312.34 502.98 308.06 500.19 Q 300.84 493.26 293.19 486.80 Q 291.64 485.49 290.43 483.87 Q 289.02 481.98 287.71 480.98 Q 281.04 475.87 275.06 469.94 Q 262.27 459.52 250.71 447.75 L 251.29 447.25 Z"/>
<text font-family="Futura" color="white" x="50%" y="95%" fill="rgb(79,155,195)" font-size="5em" dominant-baseline="middle" text-anchor="middle">ParaFoil</text>    
</svg>